<?xml version="1.0" standalone="no"?>
<!DOCTYPE svg PUBLIC "-//W3C//DTD SVG 20010904//EN"
 "http://www.w3.org/TR/2001/REC-SVG-20010904/DTD/svg10.dtd">
<svg version="1.0" xmlns="http://www.w3.org/2000/svg"
 width="120.000000pt" height="120.000000pt" viewBox="0 0 120.000000 120.000000"
 preserveAspectRatio="xMidYMid meet">
<metadata>
Created by potrace 1.14, written by Peter Selinger 2001-2017
</metadata>
<g transform="translate(0.000000,120.000000) scale(0.100000,-0.100000)"
fill="#000000" stroke="none">
<path d="M0 600 l0 -600 600 0 600 0 0 600 0 600 -600 0 -600 0 0 -600z m502
143 l3 -127 110 126 110 127 59 1 c69 0 75 13 -61 -137 -51 -57 -93 -106 -93
-109 0 -3 54 -69 121 -145 l120 -139 -64 0 -64 0 -79 92 c-44 50 -84 98 -90
107 -10 12 -16 9 -42 -20 -29 -31 -31 -40 -32 -106 l0 -73 -45 0 -45 0 0 265
0 265 45 0 44 0 3 -127z"/>
</g>
</svg>
